<svg xmlns="http://www.w3.org/2000/svg" viewBox="0 0 210 210"><defs><style>.cls-1{fill:#6e95c9;}.cls-2{fill:#a2ec7f;}</style></defs><g id="Icon_B_W" data-name="Icon B/W"><g id="M"><path class="cls-1" d="M100.44,55.54c-4,12.94-7.78,24.92-11.5,36.91-1.48,4.76-2.83,9.56-4.34,14.31-2.69,8.48-6.64,11.73-14,11.67-7-.06-10.93-3.35-13.51-11.65C52.27,91.38,47.55,76,42.79,60.57a9.28,9.28,0,0,0-2.26-4c-1.23,8.17-2.44,16.34-3.69,24.51-1.34,8.71-2.46,17.46-4.15,26.1C31.2,114.78,27.58,118,21.32,118.4,12.82,119,6.92,113.57,8,105c1.85-14.16,4.44-28.24,6.83-42.33,2.21-13,4.57-25.87,6.84-38.81,1.22-7,4-12.87,11.55-14.73,7.79-1.91,13.63,1.48,18,7.74,8.36,12,11.88,25.89,15.54,39.72,1.18,4.46,2.27,8.95,4.52,13.56,1.13-4.15,2.11-8.36,3.44-12.45,3.6-11,7.16-22.1,11.15-33,1.23-3.35,3.63-6.33,5.82-9.24C96,9.75,101.82,7.34,108.87,9.28c6.8,1.86,9.67,7.25,10.9,13.63,1.65,8.66,3.06,17.37,4.57,26.05q4.48,25.8,9,51.61a37,37,0,0,1,.44,4.46c.31,6.81-3.35,12.21-8.92,13.24-7.55,1.4-13.1-1.45-15.07-8.82-1.84-6.87-2.79-14-3.89-21.06-1.55-9.86-2.86-19.75-4.3-29.63A24.86,24.86,0,0,0,100.44,55.54Z"/></g><g id="G"><path class="cls-2" d="M180.57,159.37c-4.68,0-9,.19-13.29,0-7.05-.39-11.22-3.47-12.43-8.75-1.66-7.29,2.25-13.48,9.66-13.84,10.14-.5,20.32-.41,30.47-.08,6.22.2,9.75,3.65,10.62,9.94,3.87,27.86-15,61-55,56.34-25.45-3-42.8-21.85-45.35-47.43-2.07-20.8,2.87-38.84,18.7-53.3,19.27-17.6,51.6-13.38,66.73-3,5,3.45,8.25,8.13,8.2,14.59-.07,8-7,12.77-14.43,9.71a66.31,66.31,0,0,1-9.18-5c-21-12.87-41-.86-43.74,22.48-1.48,12.51.55,24.34,10.43,33.44,12.66,11.66,34.07,5.59,38.1-10.76A35,35,0,0,0,180.57,159.37Z"/></g></g></svg>