<?xml version="1.0" standalone="no"?>
<!DOCTYPE svg PUBLIC "-//W3C//DTD SVG 20010904//EN"
 "http://www.w3.org/TR/2001/REC-SVG-20010904/DTD/svg10.dtd">
<svg version="1.0" xmlns="http://www.w3.org/2000/svg"
 width="512.000000pt" height="512.000000pt" viewBox="0 0 512.000000 512.000000"
 preserveAspectRatio="xMidYMid meet">
<metadata>
Created by potrace 1.11, written by Peter Selinger 2001-2013
</metadata>
<g transform="translate(0.000000,512.000000) scale(0.100000,-0.100000)"
fill="#000000" stroke="none">
<path d="M2290 5018 c-227 -21 -541 -104 -750 -198 -718 -324 -1248 -975
-1403 -1725 -44 -211 -52 -290 -52 -520 0 -297 34 -511 121 -772 361 -1084
1417 -1776 2554 -1672 1172 106 2113 1047 2219 2219 104 1138 -591 2198 -1677
2556 -314 104 -675 144 -1012 112z m-284 -723 c42 -88 168 -173 327 -219 198
-58 260 -61 990 -59 623 2 667 1 667 -15 -1 -33 -40 -345 -44 -349 -4 -5 -378
-22 -478 -23 l-58 0 0 -214 0 -213 77 -7 c42 -3 99 -6 127 -6 80 0 78 4 61
-160 -8 -79 -17 -145 -19 -148 -3 -2 -60 3 -128 11 -68 8 -124 14 -125 14 0
-1 -8 -87 -17 -192 -9 -104 -19 -205 -22 -222 l-6 -33 126 0 c94 0 126 -3 126
-12 0 -7 -7 -82 -17 -166 l-18 -154 -100 8 c-55 4 -113 7 -129 8 l-29 1 -23
-125 c-74 -402 -200 -756 -349 -987 -70 -108 -216 -254 -305 -306 -194 -113
-463 -128 -656 -38 -84 39 -144 81 -209 147 -153 153 -272 393 -310 624 -19
119 -19 348 0 455 21 117 75 284 94 289 9 3 67 8 130 11 l114 7 -7 -53 c-32
-264 -28 -547 11 -781 20 -119 25 -112 42 69 19 188 117 524 158 540 14 5 202
-12 209 -19 2 -2 -8 -39 -21 -81 -39 -122 -55 -236 -55 -392 0 -257 45 -414
138 -479 60 -42 140 -43 201 -3 162 107 281 586 332 1337 14 205 17 910 5
1121 l-8 147 -91 7 c-406 31 -645 153 -782 400 -32 58 -75 176 -88 241 l-6 32
57 10 c89 15 90 15 108 -23z"/>
</g>
</svg>
