<svg id="favicon" xmlns="http://www.w3.org/2000/svg" viewBox="0 0 512 512"><defs><style>.cls-1{fill:#fff;}</style></defs><path id="Background" d="M501.36,256.06c0-135.26-109.61-245.13-244.92-245.41s-245.57,109.52-245.8,245,109.7,245.54,245.18,245.67S501.32,391.52,501.36,256.06Z"/><path id="J" class="cls-1" d="M173.33,78.83c7.78-1.84,13.36-4,20,5.13C206,101.53,227,104.15,247,106.08c44.88,4.36,89.9.49,134.86,1.22,1.95,0,3.91,0,6.66,0-1.43,12.11-2.78,23.61-4.15,35.11-.33,2.83-2.67,2.13-4.27,2.14-16.44.08-32.88.05-49.59.05v44.27l27.81,2c-1,10.33-2,20.18-3.08,30.57l-25.7-2.78c-1.3,14.67-2.59,29.18-3.94,44.36h25.05c-1.25,10.75-2.39,20.79-3.58,30.82-.46,3.88-3.5,2.35-5.48,2.27-20.4-.76-20.12-.74-24.56,19.45-8.22,37.38-17.79,74.39-43.83,104.17-33.51,38.31-87.29,35.72-116.52-5.92C130.12,376,127.64,334.83,142.8,292c.48-1.36,1.9-3.23,3-3.35,7.71-.82,15.47-1.23,23.81-1.82-4,31-4.52,61.17,2.53,94.56,1.68-22.44,4.6-41.28,11.33-59.31,5.52-14.79,8.43-15.88,27.7-10.43a134.12,134.12,0,0,0-5,76.45c2.43,10.92,7.3,20.68,20.17,21.64,11.84.88,17.49-7.92,21.68-17,13.71-29.68,16.84-61.78,20-93.71,4.86-48.83,4.75-97.79,2.22-146.77-.25-4.69-1.49-6-6.23-6.25-16.32-.94-32.49-3.18-47.69-9.69C191.08,125.51,178.4,105.21,173.33,78.83Z"/></svg>